<?xml version="1.0" standalone="no"?><!DOCTYPE svg PUBLIC "-//W3C//DTD SVG 1.1//EN" "http://www.w3.org/Graphics/SVG/1.1/DTD/svg11.dtd"><svg class="icon" height="512" viewBox="0 0 1024 1024" version="1.1" xmlns="http://www.w3.org/2000/svg"><path d="M412.8 639.1l41.7-41.7c7.8-7.8 7.8-20.4 0-28.2-7.8-7.8-20.4-7.8-28.2 0l-41.7 41.7-41.7-41.7c-7.8-7.8-20.4-7.8-28.2 0-7.8 7.8-7.8 20.4 0 28.2l41.7 41.7-41.7 41.7c-7.8 7.8-7.8 20.4 0 28.2 3.9 3.9 9 5.8 14.1 5.8s10.2-2 14.1-5.8l41.7-41.7 41.7 41.7c3.9 3.9 9 5.8 14.1 5.8s10.2-2 14.1-5.8c7.8-7.8 7.8-20.4 0-28.2l-41.7-41.7z" fill="" /><path d="M512 0C229.2 0 0 229.2 0 512s229.2 512 512 512 512-229.2 512-512S794.8 0 512 0z m-19.9 746.7c-28.7 28.7-66.9 44.6-107.4 44.6-40.6 0-78.7-15.8-107.5-44.6-28.7-28.7-44.5-66.9-44.5-107.6 0-40.7 15.8-78.9 44.5-107.6C305.8 502.8 344 487 384.6 487s78.8 15.8 107.5 44.5c28.7 28.7 44.5 66.9 44.5 107.6 0 40.7-15.8 78.9-44.5 107.6zM786 785.9c-7.8 7.8-20.4 7.8-28.2 0L645 673.1c-0.7-0.7-1-1.6-1.6-2.4-31 26.7-68.7 45.7-110.2 54.6 8.5-14.6 14.7-30.2 18.5-46.6 80.8-29 138.8-106.2 138.8-197.1 0-115.7-93.7-209.5-209.3-209.5s-209.3 93.8-209.3 209.5c0 8.9 0.7 17.5 1.8 26.1-10 4.3-26.7 27.6-33.2 37.5-5.3-20.3-8.5-41.5-8.5-63.5 0-137.7 111.5-249.4 249.1-249.4S730.2 344 730.2 481.7c0 61.7-22.5 118.1-59.6 161.7 0.8 0.6 1.7 0.9 2.4 1.6l112.7 112.9c8 7.6 8 20.3 0.3 28z" fill="" /></svg>